<svg xmlns="http://www.w3.org/2000/svg" width="1200" height="900" viewBox="0 0 1200 900" role="img" aria-label="amber-room detail">
  <rect width="1200" height="900" fill="#e2ded6"/>
  <g><line x1="-900" y1="0" x2="0" y2="900" stroke="#cfc6b8" stroke-width="12" opacity=".5"/><line x1="-872" y1="0" x2="28" y2="900" stroke="#cfc6b8" stroke-width="12" opacity=".5"/><line x1="-844" y1="0" x2="56" y2="900" stroke="#cfc6b8" stroke-width="12" opacity=".5"/><line x1="-816" y1="0" x2="84" y2="900" stroke="#cfc6b8" stroke-width="12" opacity=".5"/><line x1="-788" y1="0" x2="112" y2="900" stroke="#cfc6b8" stroke-width="12" opacity=".5"/><line x1="-760" y1="0" x2="140" y2="900" stroke="#cfc6b8" stroke-width="12" opacity=".5"/><line x1="-732" y1="0" x2="168" y2="900" stroke="#cfc6b8" stroke-width="12" opacity=".5"/><line x1="-704" y1="0" x2="196" y2="900" stroke="#cfc6b8" stroke-width="12" opacity=".5"/><line x1="-676" y1="0" x2="224" y2="900" stroke="#cfc6b8" stroke-width="12" opacity=".5"/><line x1="-648" y1="0" x2="252" y2="900" stroke="#cfc6b8" stroke-width="12" opacity=".5"/><line x1="-620" y1="0" x2="280" y2="900" stroke="#cfc6b8" stroke-width="12" opacity=".5"/><line x1="-592" y1="0" x2="308" y2="900" stroke="#cfc6b8" stroke-width="12" opacity=".5"/><line x1="-564" y1="0" x2="336" y2="900" stroke="#cfc6b8" stroke-width="12" opacity=".5"/><line x1="-536" y1="0" x2="364" y2="900" stroke="#cfc6b8" stroke-width="12" opacity=".5"/><line x1="-508" y1="0" x2="392" y2="900" stroke="#cfc6b8" stroke-width="12" opacity=".5"/><line x1="-480" y1="0" x2="420" y2="900" stroke="#cfc6b8" stroke-width="12" opacity=".5"/><line x1="-452" y1="0" x2="448" y2="900" stroke="#cfc6b8" stroke-width="12" opacity=".5"/><line x1="-424" y1="0" x2="476" y2="900" stroke="#cfc6b8" stroke-width="12" opacity=".5"/><line x1="-396" y1="0" x2="504" y2="900" stroke="#cfc6b8" stroke-width="12" opacity=".5"/><line x1="-368" y1="0" x2="532" y2="900" stroke="#cfc6b8" stroke-width="12" opacity=".5"/><line x1="-340" y1="0" x2="560" y2="900" stroke="#cfc6b8" stroke-width="12" opacity=".5"/><line x1="-312" y1="0" x2="588" y2="900" stroke="#cfc6b8" stroke-width="12" opacity=".5"/><line x1="-284" y1="0" x2="616" y2="900" stroke="#cfc6b8" stroke-width="12" opacity=".5"/><line x1="-256" y1="0" x2="644" y2="900" stroke="#cfc6b8" stroke-width="12" opacity=".5"/><line x1="-228" y1="0" x2="672" y2="900" stroke="#cfc6b8" stroke-width="12" opacity=".5"/><line x1="-200" y1="0" x2="700" y2="900" stroke="#cfc6b8" stroke-width="12" opacity=".5"/><line x1="-172" y1="0" x2="728" y2="900" stroke="#cfc6b8" stroke-width="12" opacity=".5"/><line x1="-144" y1="0" x2="756" y2="900" stroke="#cfc6b8" stroke-width="12" opacity=".5"/><line x1="-116" y1="0" x2="784" y2="900" stroke="#cfc6b8" stroke-width="12" opacity=".5"/><line x1="-88" y1="0" x2="812" y2="900" stroke="#cfc6b8" stroke-width="12" opacity=".5"/><line x1="-60" y1="0" x2="840" y2="900" stroke="#cfc6b8" stroke-width="12" opacity=".5"/><line x1="-32" y1="0" x2="868" y2="900" stroke="#cfc6b8" stroke-width="12" opacity=".5"/><line x1="-4" y1="0" x2="896" y2="900" stroke="#cfc6b8" stroke-width="12" opacity=".5"/><line x1="24" y1="0" x2="924" y2="900" stroke="#cfc6b8" stroke-width="12" opacity=".5"/><line x1="52" y1="0" x2="952" y2="900" stroke="#cfc6b8" stroke-width="12" opacity=".5"/><line x1="80" y1="0" x2="980" y2="900" stroke="#cfc6b8" stroke-width="12" opacity=".5"/><line x1="108" y1="0" x2="1008" y2="900" stroke="#cfc6b8" stroke-width="12" opacity=".5"/><line x1="136" y1="0" x2="1036" y2="900" stroke="#cfc6b8" stroke-width="12" opacity=".5"/><line x1="164" y1="0" x2="1064" y2="900" stroke="#cfc6b8" stroke-width="12" opacity=".5"/><line x1="192" y1="0" x2="1092" y2="900" stroke="#cfc6b8" stroke-width="12" opacity=".5"/><line x1="220" y1="0" x2="1120" y2="900" stroke="#cfc6b8" stroke-width="12" opacity=".5"/><line x1="248" y1="0" x2="1148" y2="900" stroke="#cfc6b8" stroke-width="12" opacity=".5"/><line x1="276" y1="0" x2="1176" y2="900" stroke="#cfc6b8" stroke-width="12" opacity=".5"/><line x1="304" y1="0" x2="1204" y2="900" stroke="#cfc6b8" stroke-width="12" opacity=".5"/><line x1="332" y1="0" x2="1232" y2="900" stroke="#cfc6b8" stroke-width="12" opacity=".5"/><line x1="360" y1="0" x2="1260" y2="900" stroke="#cfc6b8" stroke-width="12" opacity=".5"/><line x1="388" y1="0" x2="1288" y2="900" stroke="#cfc6b8" stroke-width="12" opacity=".5"/><line x1="416" y1="0" x2="1316" y2="900" stroke="#cfc6b8" stroke-width="12" opacity=".5"/><line x1="444" y1="0" x2="1344" y2="900" stroke="#cfc6b8" stroke-width="12" opacity=".5"/><line x1="472" y1="0" x2="1372" y2="900" stroke="#cfc6b8" stroke-width="12" opacity=".5"/><line x1="500" y1="0" x2="1400" y2="900" stroke="#cfc6b8" stroke-width="12" opacity=".5"/><line x1="528" y1="0" x2="1428" y2="900" stroke="#cfc6b8" stroke-width="12" opacity=".5"/><line x1="556" y1="0" x2="1456" y2="900" stroke="#cfc6b8" stroke-width="12" opacity=".5"/><line x1="584" y1="0" x2="1484" y2="900" stroke="#cfc6b8" stroke-width="12" opacity=".5"/><line x1="612" y1="0" x2="1512" y2="900" stroke="#cfc6b8" stroke-width="12" opacity=".5"/><line x1="640" y1="0" x2="1540" y2="900" stroke="#cfc6b8" stroke-width="12" opacity=".5"/><line x1="668" y1="0" x2="1568" y2="900" stroke="#cfc6b8" stroke-width="12" opacity=".5"/><line x1="696" y1="0" x2="1596" y2="900" stroke="#cfc6b8" stroke-width="12" opacity=".5"/><line x1="724" y1="0" x2="1624" y2="900" stroke="#cfc6b8" stroke-width="12" opacity=".5"/><line x1="752" y1="0" x2="1652" y2="900" stroke="#cfc6b8" stroke-width="12" opacity=".5"/><line x1="780" y1="0" x2="1680" y2="900" stroke="#cfc6b8" stroke-width="12" opacity=".5"/><line x1="808" y1="0" x2="1708" y2="900" stroke="#cfc6b8" stroke-width="12" opacity=".5"/><line x1="836" y1="0" x2="1736" y2="900" stroke="#cfc6b8" stroke-width="12" opacity=".5"/><line x1="864" y1="0" x2="1764" y2="900" stroke="#cfc6b8" stroke-width="12" opacity=".5"/><line x1="892" y1="0" x2="1792" y2="900" stroke="#cfc6b8" stroke-width="12" opacity=".5"/><line x1="920" y1="0" x2="1820" y2="900" stroke="#cfc6b8" stroke-width="12" opacity=".5"/><line x1="948" y1="0" x2="1848" y2="900" stroke="#cfc6b8" stroke-width="12" opacity=".5"/><line x1="976" y1="0" x2="1876" y2="900" stroke="#cfc6b8" stroke-width="12" opacity=".5"/><line x1="1004" y1="0" x2="1904" y2="900" stroke="#cfc6b8" stroke-width="12" opacity=".5"/><line x1="1032" y1="0" x2="1932" y2="900" stroke="#cfc6b8" stroke-width="12" opacity=".5"/><line x1="1060" y1="0" x2="1960" y2="900" stroke="#cfc6b8" stroke-width="12" opacity=".5"/><line x1="1088" y1="0" x2="1988" y2="900" stroke="#cfc6b8" stroke-width="12" opacity=".5"/><line x1="1116" y1="0" x2="2016" y2="900" stroke="#cfc6b8" stroke-width="12" opacity=".5"/><line x1="1144" y1="0" x2="2044" y2="900" stroke="#cfc6b8" stroke-width="12" opacity=".5"/><line x1="1172" y1="0" x2="2072" y2="900" stroke="#cfc6b8" stroke-width="12" opacity=".5"/><line x1="1200" y1="0" x2="2100" y2="900" stroke="#cfc6b8" stroke-width="12" opacity=".5"/><line x1="1228" y1="0" x2="2128" y2="900" stroke="#cfc6b8" stroke-width="12" opacity=".5"/><line x1="1256" y1="0" x2="2156" y2="900" stroke="#cfc6b8" stroke-width="12" opacity=".5"/><line x1="1284" y1="0" x2="2184" y2="900" stroke="#cfc6b8" stroke-width="12" opacity=".5"/><line x1="1312" y1="0" x2="2212" y2="900" stroke="#cfc6b8" stroke-width="12" opacity=".5"/><line x1="1340" y1="0" x2="2240" y2="900" stroke="#cfc6b8" stroke-width="12" opacity=".5"/><line x1="1368" y1="0" x2="2268" y2="900" stroke="#cfc6b8" stroke-width="12" opacity=".5"/><line x1="1396" y1="0" x2="2296" y2="900" stroke="#cfc6b8" stroke-width="12" opacity=".5"/><line x1="1424" y1="0" x2="2324" y2="900" stroke="#cfc6b8" stroke-width="12" opacity=".5"/><line x1="1452" y1="0" x2="2352" y2="900" stroke="#cfc6b8" stroke-width="12" opacity=".5"/><line x1="1480" y1="0" x2="2380" y2="900" stroke="#cfc6b8" stroke-width="12" opacity=".5"/><line x1="1508" y1="0" x2="2408" y2="900" stroke="#cfc6b8" stroke-width="12" opacity=".5"/><line x1="1536" y1="0" x2="2436" y2="900" stroke="#cfc6b8" stroke-width="12" opacity=".5"/><line x1="1564" y1="0" x2="2464" y2="900" stroke="#cfc6b8" stroke-width="12" opacity=".5"/><line x1="1592" y1="0" x2="2492" y2="900" stroke="#cfc6b8" stroke-width="12" opacity=".5"/><line x1="1620" y1="0" x2="2520" y2="900" stroke="#cfc6b8" stroke-width="12" opacity=".5"/><line x1="1648" y1="0" x2="2548" y2="900" stroke="#cfc6b8" stroke-width="12" opacity=".5"/><line x1="1676" y1="0" x2="2576" y2="900" stroke="#cfc6b8" stroke-width="12" opacity=".5"/><line x1="1704" y1="0" x2="2604" y2="900" stroke="#cfc6b8" stroke-width="12" opacity=".5"/><line x1="1732" y1="0" x2="2632" y2="900" stroke="#cfc6b8" stroke-width="12" opacity=".5"/><line x1="1760" y1="0" x2="2660" y2="900" stroke="#cfc6b8" stroke-width="12" opacity=".5"/><line x1="1788" y1="0" x2="2688" y2="900" stroke="#cfc6b8" stroke-width="12" opacity=".5"/><line x1="1816" y1="0" x2="2716" y2="900" stroke="#cfc6b8" stroke-width="12" opacity=".5"/><line x1="1844" y1="0" x2="2744" y2="900" stroke="#cfc6b8" stroke-width="12" opacity=".5"/><line x1="1872" y1="0" x2="2772" y2="900" stroke="#cfc6b8" stroke-width="12" opacity=".5"/><line x1="1900" y1="0" x2="2800" y2="900" stroke="#cfc6b8" stroke-width="12" opacity=".5"/><line x1="1928" y1="0" x2="2828" y2="900" stroke="#cfc6b8" stroke-width="12" opacity=".5"/><line x1="1956" y1="0" x2="2856" y2="900" stroke="#cfc6b8" stroke-width="12" opacity=".5"/><line x1="1984" y1="0" x2="2884" y2="900" stroke="#cfc6b8" stroke-width="12" opacity=".5"/><line x1="2012" y1="0" x2="2912" y2="900" stroke="#cfc6b8" stroke-width="12" opacity=".5"/><line x1="2040" y1="0" x2="2940" y2="900" stroke="#cfc6b8" stroke-width="12" opacity=".5"/><line x1="2068" y1="0" x2="2968" y2="900" stroke="#cfc6b8" stroke-width="12" opacity=".5"/><line x1="2096" y1="0" x2="2996" y2="900" stroke="#cfc6b8" stroke-width="12" opacity=".5"/></g>
  <rect width="1200" height="900" fill="url(#v)"/>
  <defs>
    <radialGradient id="v" cx="50%" cy="45%" r="72%">
      <stop offset="60%" stop-color="#e2ded6" stop-opacity="0"/>
      <stop offset="100%" stop-color="#e2ded6" stop-opacity=".55"/>
    </radialGradient>
  </defs>
</svg>